<?xml version="1.0" standalone="no"?><!DOCTYPE svg PUBLIC "-//W3C//DTD SVG 1.1//EN" "http://www.w3.org/Graphics/SVG/1.1/DTD/svg11.dtd" [<!ENTITY nbsp " ">]><svg data-noselect="" viewBox="115 98.73238647681373 544.2336566971101 408.1752425228325" width="544.2336566971101" ref="svg_canvas" height="408.1752425228325" preserveAspectRatio="none" version="1.1" xmlns="http://www.w3.org/2000/svg" style="background: #ffffff;">
    <def></def>
    <g id="shape_tDKxdcduu2" ref="shape_tDKxdcduu2" key="shape_tDKxdcduu2" transform="translate(195,215) rotate(0,71.353290901515,71.353290901515) scale(1,1)" style="cursor:move;display:inline;opacity:1;" filter="">
            <g style="display:inline"><rect fill="rgba(0,0,0,0)" width="162.70658180303" height="162.70658180303" x="-10" y="-10"></rect><svg version="1.1" id="图层_1" xmlns="http://www.w3.org/2000/svg" xmlns:xlink="http://www.w3.org/1999/xlink" x="0px" y="0px" width="142.70658180303" height="142.70658180303" viewBox="0 0 100 100" enable-background="new 0 0 100 100" xml:space="preserve" shapetype="ellipse" preserveAspectRatio="none" class="style-removed" data-parent="shape_tDKxdcduu2">
	 <linearGradient class="" x1="0%" y1="0%" x2="0%" y2="100%" gradientTransform="translate(0.5,0.5) rotate(0) translate(-0.5,-0.5)">
		<stop id="stop1_4NyrrmMbYp_c" offset="0%" class="" stop-color="#05a"></stop>
		<stop id="stop2_dVjGsOQpgg_c" offset="100%" class="" stop-color="#0a5"></stop>
	</linearGradient>

	<radialGradient class="" cx="50%" cy="50%" r="50%" fx="50%" fy="50%">
		<stop offset="0%" class="" stop-color="#05a"></stop>
		<stop offset="100%" class="" stop-color="#0a5"></stop>
	</radialGradient>
	<clipPath id="f_ellipse_o5UjVSZdth_c" class="">
		<ellipse fill="none" class="" stroke="#FF4C1B" stroke-width="1" stroke-miterlimit="10" cx="50" cy="50" rx="50" ry="50"></ellipse>
	</clipPath>
	<ellipse class="" fill="#FF4C1B" opacity="1" cx="50" cy="50" rx="49" ry="49"></ellipse>
	<ellipse class="" fill="none" stroke="#FF4C1B" stroke-width="0" stroke-miterlimit="10" cx="50" cy="50" rx="50" ry="50" clip-path="url(#f_ellipse_o5UjVSZdth_c)"></ellipse>
</svg></g>
        </g><g id="shape_dTulsl9mQK" ref="shape_dTulsl9mQK" key="shape_dTulsl9mQK" transform="translate(299.28193031744,234.71579104104) rotate(0,8.6905798157943,8.6905798157943) scale(1,1)" style="cursor:move;display:inline;opacity:1;" filter="">
            <g style="display:inline"><rect fill="rgba(0,0,0,0)" width="37.381159631589" height="37.381159631589" x="-10" y="-10"></rect><svg version="1.1" id="图层_1" xmlns="http://www.w3.org/2000/svg" xmlns:xlink="http://www.w3.org/1999/xlink" x="0px" y="0px" width="17.381159631589" height="17.381159631589" viewBox="0 0 100 100" enable-background="new 0 0 100 100" xml:space="preserve" shapetype="ellipse" preserveAspectRatio="none" class="style-removed" data-parent="shape_dTulsl9mQK">
	 <linearGradient class="" x1="0%" y1="0%" x2="0%" y2="100%" gradientTransform="translate(0.5,0.5) rotate(0) translate(-0.5,-0.5)">
		<stop id="stop1_blWpR6owon_c" offset="0%" class="" stop-color="#05a"></stop>
		<stop id="stop2_2WMJdCPnIG_c" offset="100%" class="" stop-color="#0a5"></stop>
	</linearGradient>

	<radialGradient class="" cx="50%" cy="50%" r="50%" fx="50%" fy="50%">
		<stop offset="0%" class="" stop-color="#05a"></stop>
		<stop offset="100%" class="" stop-color="#0a5"></stop>
	</radialGradient>
	<clipPath id="f_ellipse_HiB3cgO7t4_c" class="">
		<ellipse fill="none" class="" stroke="#dddddd" stroke-width="1" stroke-miterlimit="10" cx="50" cy="50" rx="50" ry="50"></ellipse>
	</clipPath>
	<ellipse class="" fill="#FFFFFF" opacity="1" cx="50" cy="50" rx="49" ry="49"></ellipse>
	<ellipse class="" fill="none" stroke="#dddddd" stroke-width="0" stroke-miterlimit="10" cx="50" cy="50" rx="50" ry="50" clip-path="url(#f_ellipse_HiB3cgO7t4_c)"></ellipse>
</svg></g>
        </g><g id="shape_QVcmHQPsq7" ref="shape_QVcmHQPsq7" key="shape_QVcmHQPsq7" transform="translate(96.79999573943999,-223.09493452354002) rotate(0,191.659256816392,534.477617128739) scale(1,1)" style="cursor:move;display:inline;opacity:1;" filter="">
            <g style="display:inline"><svg xmlns="http://www.w3.org/2000/svg" version="1.1" xmlns:xlink="http://www.w3.org/1999/xlink" width="607.08" height="1068.4699" viewBox="0 0 607.08 1068.4699" preserveAspectRatio="none" data-parent="shape_QVcmHQPsq7"><rect fill="rgba(0,0,0,0)" width="74" height="159" x="133.27" y="454.73495"></rect><g data-width="73.43177" transform="translate(133.55411500000002, 0)"><path d="M37.18-30.25L31.58-32.12Q25.72-34.12 20.92-36.18Q16.13-38.25 12.66-41.18Q9.20-44.11 7.26-48.18Q5.33-52.24 5.33-58.11L5.33-58.11Q5.33-69.43 14.06-76.23Q22.79-83.03 38.52-83.03L38.52-83.03Q44.25-83.03 49.18-82.23Q54.11-81.43 57.64-79.76Q61.17-78.10 63.17-75.50Q65.17-72.90 65.17-69.43L65.17-69.43Q65.17-65.97 63.57-63.50Q61.97-61.04 59.70-59.31L59.70-59.31Q56.77-61.17 51.84-62.57Q46.91-63.97 41.05-63.97L41.05-63.97Q35.05-63.97 32.25-62.30Q29.45-60.64 29.45-58.11L29.45-58.11Q29.45-56.11 31.19-54.84Q32.92-53.57 36.38-52.51L36.38-52.51L43.45-50.24Q55.97-46.24 62.70-40.05Q69.43-33.85 69.43-23.19L69.43-23.19Q69.43-11.86 60.50-4.86Q51.58 2.13 34.25 2.13L34.25 2.13Q28.12 2.13 22.86 1.13Q17.59 0.13 13.66-1.80Q9.73-3.73 7.53-6.60Q5.33-9.46 5.33-13.19L5.33-13.19Q5.33-17.06 7.60-19.79Q9.86-22.52 12.53-23.99L12.53-23.99Q16.26-21.06 21.66-18.92Q27.05-16.79 33.45-16.79L33.45-16.79Q39.98-16.79 42.65-18.79Q45.31-20.79 45.31-23.46L45.31-23.46Q45.31-26.12 43.18-27.52Q41.05-28.92 37.18-30.25L37.18-30.25Z" transform="translate(0 557.73495) " fill="rgb(255, 255, 255)" stroke="rgb(255, 255, 255)" stroke-width="0.222" data-glyph-w="73.43177" data-glyph-h="268.13924" data-glyph-ascender="157.92495" data-glyph-descender="-110.21429"></path></g></svg></g>
        </g><g id="shape_wifAVftsRN" ref="shape_wifAVftsRN" key="shape_wifAVftsRN" transform="translate(236.17365669711,-117.24076044399501) rotate(0,252.61756103921,410.956572265625) scale(1,1)" style="cursor:move;display:inline;opacity:1;" filter="">
            <g style="display:inline"><svg xmlns="http://www.w3.org/2000/svg" version="1.1" xmlns:xlink="http://www.w3.org/1999/xlink" width="685.24" height="821.91314453125" viewBox="0 0 685.24 821.91314453125" preserveAspectRatio="none" data-parent="shape_wifAVftsRN"><rect fill="rgba(0,0,0,0)" width="229" height="136" x="114.06" y="342.956572265625"></rect><g data-width="228.12" transform="translate(114.06, 0)"><path d="M44.72 8.24L44.72 8.24L44.72-81.70Q44.72-85.93 48.68-85.93L48.68-85.93L66.22-85.93Q70.17-85.93 70.17-81.70L70.17-81.70L70.17 8.24Q70.17 12.48 66.22 12.48L66.22 12.48L48.68 12.48Q44.72 12.48 44.72 8.24ZM22.67 9.30L22.67 9.30L7.69 9.30Q4.18 9.30 4.18 6.29L4.18 6.29Q4.18 6.01 4.29 5.18L4.29 5.18L14.87-71.12Q15.43-75.07 18.99-75.07L18.99-75.07L33.03-75.07Q36.53-75.07 36.53-72.01L36.53-72.01Q36.53-71.34 36.48-70.95L36.48-70.95L26.73 5.35Q26.23 9.30 22.67 9.30ZM87.94 5.35L87.94 5.35L78.42-70.95Q78.36-71.29 78.36-72.01L78.36-72.01Q78.36-75.07 81.87-75.07L81.87-75.07L95.40-75.07Q99.02-75.07 99.52-71.12L99.52-71.12L109.60 5.18Q109.66 5.51 109.66 6.24L109.66 6.24Q109.66 9.30 106.21 9.30L106.21 9.30L92.01 9.30Q88.44 9.30 87.94 5.35Z" transform="translate(0 453.956572265625) " fill="rgb(255, 76, 27)" stroke="rgb(255, 76, 27)" stroke-width="0.19" data-glyph-w="114.06" data-glyph-h="136.89427734375" data-glyph-ascender="111.776572265625" data-glyph-descender="-25.117705078125"></path><path d="M63.32-68.39L63.32-68.39L63.32-63.49Q63.32-60.71 64.55-59.54L64.55-59.54Q65.83-58.31 68.78-58.31L68.78-58.31L103.76-58.31Q107.66-58.31 107.66-54.52L107.66-54.52L107.66-53.02Q107.66-49.23 103.76-49.23L103.76-49.23L68.78-49.23Q65.83-49.23 64.55-48.06L64.55-48.06Q63.32-46.89 63.32-44.11L63.32-44.11L63.32-36.48Q63.32-33.69 64.55-32.52L64.55-32.52Q65.83-31.36 68.78-31.36L68.78-31.36L106.88-31.36Q110.83-31.36 110.83-27.57L110.83-27.57L110.83-26.06Q110.83-22.28 106.88-22.28L106.88-22.28L68.78-22.28Q65.83-22.28 64.55-21.05L64.55-21.05Q63.32-19.88 63.32-17.15L63.32-17.15L63.32-3.12Q63.32-0.39 64.55 0.84L64.55 0.84Q65.83 2.00 68.78 2.00L68.78 2.00L107.04 2.00Q111.00 2.00 111.00 5.79L111.00 5.79L111.00 7.30Q111.00 11.08 107.04 11.08L107.04 11.08L41.05 11.08Q37.15 11.08 37.15 6.85L37.15 6.85L37.15-17.15Q37.15-19.94 35.87-21.05L35.87-21.05Q34.59-22.28 31.63-22.28L31.63-22.28L7.30-22.28Q3.34-22.28 3.34-26.06L3.34-26.06L3.34-27.57Q3.34-31.36 7.30-31.36L7.30-31.36L31.63-31.36Q34.59-31.36 35.87-32.52L35.87-32.52Q37.15-33.69 37.15-36.48L37.15-36.48L37.15-44.11Q37.15-46.89 35.87-48.06L35.87-48.06Q34.59-49.23 31.63-49.23L31.63-49.23L11.03-49.23Q7.13-49.23 7.13-53.02L7.13-53.02L7.13-54.52Q7.13-58.31 11.03-58.31L11.03-58.31L31.63-58.31Q34.59-58.31 35.87-59.54L35.87-59.54Q37.15-60.71 37.15-63.49L37.15-63.49L37.15-68.39Q37.15-71.18 35.87-72.35L35.87-72.35Q34.59-73.57 31.63-73.57L31.63-73.57L8.91-73.57Q4.96-73.57 4.96-77.47L4.96-77.47L4.96-79.47Q4.96-83.37 8.91-83.37L8.91-83.37L105.43-83.37Q109.38-83.37 109.38-79.47L109.38-79.47L109.38-77.47Q109.38-73.57 105.43-73.57L105.43-73.57L68.78-73.57Q65.83-73.57 64.55-72.35L64.55-72.35Q63.32-71.18 63.32-68.39Z" transform="translate(114.06 453.956572265625) " fill="rgb(255, 76, 27)" stroke="rgb(255, 76, 27)" stroke-width="0.19" data-glyph-w="114.06" data-glyph-h="136.89427734375" data-glyph-ascender="111.776572265625" data-glyph-descender="-25.117705078125"></path></g></svg></g>
        </g>
  </svg>